<mxfile host="app.diagrams.net" modified="2021-09-04T07:03:43.547Z" agent="5.0 (Macintosh; Intel Mac OS X 10_15_7) AppleWebKit/537.36 (KHTML, like Gecko) Chrome/92.0.4515.159 Safari/537.36" etag="nXcpenknVsTLBRf_1S-p" version="15.0.6" type="github">
  <diagram id="OUkqKpIjl7XL8oM2zXU5" name="Page-1">
    <mxGraphModel dx="946" dy="471" grid="1" gridSize="10" guides="1" tooltips="1" connect="1" arrows="1" fold="1" page="1" pageScale="1" pageWidth="827" pageHeight="1169" math="0" shadow="0">
      <root>
        <mxCell id="0" />
        <mxCell id="1" parent="0" />
        <mxCell id="LxfW0TvHGFXh_5ghbKS4-122" value="" style="rounded=1;whiteSpace=wrap;html=1;shadow=0;fillColor=none;dashed=1;" vertex="1" parent="1">
          <mxGeometry x="60" y="568.5" width="660" height="421.5" as="geometry" />
        </mxCell>
        <mxCell id="LxfW0TvHGFXh_5ghbKS4-1" value="" style="rounded=1;whiteSpace=wrap;html=1;dashed=1;" vertex="1" parent="1">
          <mxGeometry x="140" y="180" width="550" height="50" as="geometry" />
        </mxCell>
        <mxCell id="LxfW0TvHGFXh_5ghbKS4-2" value="auth" style="shape=hexagon;perimeter=hexagonPerimeter2;whiteSpace=wrap;html=1;fixedSize=1;fillColor=#f8cecc;strokeColor=#b85450;" vertex="1" parent="1">
          <mxGeometry x="150" y="185" width="70" height="40" as="geometry" />
        </mxCell>
        <mxCell id="LxfW0TvHGFXh_5ghbKS4-7" value="mark" style="shape=hexagon;perimeter=hexagonPerimeter2;whiteSpace=wrap;html=1;fixedSize=1;fillColor=#f5f5f5;strokeColor=#666666;fontColor=#333333;" vertex="1" parent="1">
          <mxGeometry x="230" y="185" width="70" height="40" as="geometry" />
        </mxCell>
        <mxCell id="LxfW0TvHGFXh_5ghbKS4-9" value="middleware" style="text;html=1;strokeColor=none;fillColor=none;align=center;verticalAlign=middle;whiteSpace=wrap;rounded=0;dashed=1;" vertex="1" parent="1">
          <mxGeometry x="604" y="185" width="76" height="20" as="geometry" />
        </mxCell>
        <mxCell id="LxfW0TvHGFXh_5ghbKS4-10" value="cors" style="shape=hexagon;perimeter=hexagonPerimeter2;whiteSpace=wrap;html=1;fixedSize=1;fillColor=#fff2cc;strokeColor=#d6b656;" vertex="1" parent="1">
          <mxGeometry x="310" y="185" width="70" height="40" as="geometry" />
        </mxCell>
        <mxCell id="LxfW0TvHGFXh_5ghbKS4-11" value="mysql&lt;br&gt;" style="shape=cylinder3;whiteSpace=wrap;html=1;boundedLbl=1;backgroundOutline=1;size=9;fillColor=#1ba1e2;strokeColor=#006EAF;fontColor=#ffffff;" vertex="1" parent="1">
          <mxGeometry x="1060" y="310" width="60" height="70" as="geometry" />
        </mxCell>
        <mxCell id="LxfW0TvHGFXh_5ghbKS4-12" value="mongo" style="shape=cylinder3;whiteSpace=wrap;html=1;boundedLbl=1;backgroundOutline=1;size=9;fillColor=#1ba1e2;strokeColor=#006EAF;fontColor=#ffffff;" vertex="1" parent="1">
          <mxGeometry x="520" y="450" width="60" height="70" as="geometry" />
        </mxCell>
        <mxCell id="LxfW0TvHGFXh_5ghbKS4-13" value="" style="verticalLabelPosition=bottom;verticalAlign=top;html=1;shape=mxgraph.flowchart.parallel_mode;pointerEvents=1;rotation=-180;" vertex="1" parent="1">
          <mxGeometry x="1042.5" y="615" width="95" height="40" as="geometry" />
        </mxCell>
        <mxCell id="LxfW0TvHGFXh_5ghbKS4-18" value="service" style="rounded=1;whiteSpace=wrap;html=1;dashed=1;" vertex="1" parent="1">
          <mxGeometry x="140" y="320" width="550" height="50" as="geometry" />
        </mxCell>
        <mxCell id="LxfW0TvHGFXh_5ghbKS4-26" value="" style="shape=image;verticalLabelPosition=bottom;labelBackgroundColor=#ffffff;verticalAlign=top;aspect=fixed;imageAspect=0;image=data:image/png,iVBORw0KGgoAAAANSUhEUgAAATcAAACiCAMAAAATIHpEAAABI1BMVEX///8jHyAAAADwvxo+vrAHpd7XoikBm48SCw0cFxjNzMzvuwBTUVKNjI0aFRcfGxzl5+j4+PiZm53c3NwLAAIAlon058+WlZXVnAr77c1MSkrGxcWoqKgAod0VDxHo9PuZ0e25uLhfXl59fHxBPj/y8vKFhITY2Nh1dHS7urqko6Miuaqi29RqaWkwLS7Ix8f8897++vHquB744KY6r+EkDQAjGRaD0cez4ds7ODkuKitdW1z66cL114nyyE3zzF323Jf55rjmu1Toy5bdqibaqkL00XPt1q7iryPdsFXivHIASWmh1O8iKjCz3PEkAwB8xekPj78UfabV6/cYbZAbYH4dT2deuuUMmMsIM0WZsL1pyb7I6eVnt6+RycNDqqDB5+L9YtEXAAAKSElEQVR4nO2da3vayBWA0Th2RthoBMhRDLKy4iKQHCDeTWoDyW7bbbO9bLf3a9Ld/P9f0TO6jqSRIDaOSDnvl5hhJB29msuZgYc0GgiCIAiCIAiCIAiCIAiCIAiCIMjhcv3i4jVw8aLuQD4frl+/+fpU4JufX9Qd0v5z/RV3diQSuPtF3YHtNRff5JwJ7t5gly3h4usSa5G6t2hOwvUvK6RF5t7UHeT+8e3Tk19t8MbNva47zv3i+tdPT062EHd0+rbuUPeJJ9waZwtxX17XHe3e8F2sbRtxR6c4PYR8m2rbThzmwZyMtm3GOGxxnO8y2k5OfoPituFJTtvJyZdbiDs69MmhXdC23RD3Vd2B18xvi9q2yX8PfeGQH9y266kH39qupdo29NTTo4OfFX4n11bR4E5Pjw69sTUaL56WcVrC0VvMecHbkzIupLw49OwDQRDk/xq9imd56o52fyBV/P4yz8vv6w54P9CJUsEfjgtcXv5Qd8z7gGNUeftj0RuY+1PdQe8BLq3y9urPUnFf1B11/azVSm9/kXk7vvxr3WHXjsIqvf1N6u34Zd1h107ltKD87O9ybwff4NobvP2jxNuhZyPju3k7PvQptTp9K/f2z7oDrxn0djfu2E8xg8P59G5s8FaSv13WHXbt9O60Xjj0NKTRmNp38IbLhYZfuR/y6l+y1nbcrjvq+mlWDnCvZNqwtXGIQUsx/l3Y7718iduWAVangv98keX7H/ATBgRBEASRcntexuNHUt49f193zHvB4xLO5dqAq6sbTEga789LxJV64+pu6g67fv4rFVfe3CJz2FvlDW6Dt0dXH+qOu26kPXWTNhTXaPxYFHe1hTfsqcUhbgttt3VHvQf8dP7R2p7XHfNekBF3vrmXorYIURxq+wiEMQ7Hto/h9nzrwQ1nUpFnj8+3Snjf1R3o3vHj+flPm6xhY5PQvtkwJ+CEUMKzm6tSdVdorYL27SOZuqurdx/qDm3feXZ7A56uEmPw580H/H7DVrTf3z6/CXj+4T06QxAEQRAEQRAEQRBkX/Acp1l3DDtBtxzrE16uR4h7/7OYruvd/yz3okkM8gk3q85U2rr/WUYGMe9/lnvRJMpn4K1pWWID66kUvW1Di5Az4eWIkB202nvxmXij2kB42ez3u7uK6I58lt72APR2N9Db3fg8vJkH5a3p9mxij9xFWiR463qd4XqpEqIMfDGCtjWbE6It11PTmfA3LN8fqGwE/wCdRlDSEVYdznRkE200a1mTqETvrBVC2Ggw9D1hAgnj6bnCseOm1Zr1Vgaho2Fa3O34YZ4zMVdR8GNrtjQI60FQenAu8AYV/dncyN/APRn3CFUZY6pNlknwqbczQqit8t9zY5pB+slhJjG0sNSmhPB76RFDhddGAOF1xDzEIcRWg/qUhG2yPQtPweAUBiFxRV2IR4/KJoQYVAuigOJ1XLVPgus4c0JJaLMVnVKFoDqRN8NaRqVwAztbPepEU+Axzm1iKCqJW0LqbZb+DqqtKCQ2OyBgKCo3aFAM3rTYW6hByHtNoihafKJpoE2hcMH0FFXx6MRIomCKEYvr88bkMShioRCISrHjilbkTTHgUQXAcyPxo7gvqqoQfwx/jH2uouDN8b1md8zbt+4SRYvSWocoqmLp7XZb7y4cc8aj8RxnprGeE2BlvU0gfLL24ICxPukH9zilCu3FJVYrHhc1xoR4aFg4bln9ic5LG4sVU2Kd4E2dEQYPcOnyCCx+leEiPGfY87k3orT6vGzRo4o93Y0200gfQRfatJn3JuLaCgmCByNsJTtbdl5Iva01hTiZqm14CLPiGVpCPCDb6BRqjIlCoz0H8KaoKpn70RFU6BARfHxL++aZppDGToDTpvssLmVqdAGpNz0JAu7IKb6fz0MSbyAp/6BBiqzPENEvxKMUq0xtNWr13Bs5S7QEY1mucnY+5a8mjR2wIOID6Cb3UpKHwPvBur2deYopZd76xXgX0gQBKhrpK7lb34ht9rNhmLTYmnJ5iMTsnYCOJXaW2EuFN6fq+mXeJHfUlDpplcQjYmW8CW+sNfUsXznnbcl2s0Mz0Kg4gsyZ4Qd/bPK2gkRBsmQv8za1WS9XdcwnmUKDW2fjWcXxiJR6WzFa2GzNeRto9rAY9sezZJlxKtGV99bmc545tGNvMHwzcuZPcjde5m2tFeeAkQp5xszK2p9n48lt4I27TcdvnbESb9AJCpZz3qb2biZUGK+HVsqISbx1W70ox+LzVXhbbcWAqQySqtXUEnpbmbeeWnzMXZ4PQiZKRkNnvCkeyHxmShSFqpR7KwweOW9DWzaJfzw8TzRSmBLdaOqtvSZUo0aSN8bNoQXrCL48gFR/njSRMm8jJukeOqTUNgtWAGQ9KYsn7LYeVLWjKJQKb4VJvuhtJwtoCIJm/3OE/Pi2pNC03CD5zWUJixaswQjlyXocS2l7k3mDZ+K4IxLI06LrFuMJWpBH+EVMnvy2y8e3T+qNmt0MYZdJvEEKbrSE6rnsdbwwlyRthWXeztTyYUX3XM2IF0Al8VAY0pLhoMrbFv10J95gHJbmM8IEwUZiZKSY7kJoWrRiLPM209R14TiBTrwyWEnj4Tef7iiUejOUYpLxQN7WJftsiTeiiImB1BvYipNVk2YyqMSba0uXZSmjqEHK8x/LEP2UehtJWvUDeXNpMVXkCN7EMUPuzUvCN2kmT0u88Ruv3Ppy7bDJxv9m6VCFpq9KvUGWOM8f+kDevJLtUNGb0HE2eYMlEBPeSLw1pYm/QHw/jjQef7v25hvFJcgDeWunmwsZEm+MiW1ffvvpc/ayN5KmrTAfjgrHCayYHYTBNzuKHdXJrMlKvXV59pc79IG8NWawBCguZVJv02TriKcNycgrtgkrdd/NNsjUmws9bZZtSGPh7yGNB35pPLooZDJLNoNy3mD1o+S/WPFQ3vhP15O56fX7fc/xTTfeHY+9wXWZ6nS7Tc/sEf6rvOGm4pDMB27HcjyrNSfCLipPKFp9z/JdHmzqbRxsxM58x7FMdxacmpHRrOU7nmMNYSGirqrigTUZmTa7k4U1tYkGqXJvIvMWbO7SoeXAkcOB85De4NqawsJc0zCocZbz1pjFG+KwaiA2rLSCLX3omlqQvxuUJ61JkuCHiathBCaF5WWT364WHGAbQeiUqbAO4SWw3qJUT+JRi/F0CQv3vw1bI3wZoQbtKu8N8hnGFxzBVZLPFx7GW6Pb45+82DRcxSzDwlH6Pa4hD4K/ydxusLoKvIVLxXDtMxAGY6htB6W8QSyFz2X0QXBAcJlgzlVCM+Ep3PTesvFEo+KEkejYtdPoLokRrCP6UCHb+ZsQOA3DDS+9yFaZZr/Acj90x3Tdluk7zW58CV3Xk/FHt1puy++HctqeGQrV+daEy9/IRq5b7nRoWs127izQV70O1O84i1gznKLDT2HltkAl8YAAKDPjTxAnfvAhYRsuIL8ZODaKN1tlLDkCQRAEQRAEQRAEQRAEQRAEQRAEQZCD4H+PjyLPpl/PmwAAAABJRU5ErkJggg==;" vertex="1" parent="1">
          <mxGeometry x="140" y="440" width="115.19" height="60" as="geometry" />
        </mxCell>
        <mxCell id="LxfW0TvHGFXh_5ghbKS4-27" value="" style="endArrow=classic;startArrow=classic;html=1;" edge="1" parent="1">
          <mxGeometry width="50" height="50" relative="1" as="geometry">
            <mxPoint x="195" y="440" as="sourcePoint" />
            <mxPoint x="195" y="370" as="targetPoint" />
          </mxGeometry>
        </mxCell>
        <mxCell id="LxfW0TvHGFXh_5ghbKS4-29" value="list &amp;amp; search req" style="endArrow=classic;startArrow=classic;html=1;entryX=0.095;entryY=1;entryDx=0;entryDy=0;entryPerimeter=0;exitX=0.096;exitY=-0.02;exitDx=0;exitDy=0;exitPerimeter=0;" edge="1" parent="1" source="LxfW0TvHGFXh_5ghbKS4-18" target="LxfW0TvHGFXh_5ghbKS4-1">
          <mxGeometry width="50" height="50" relative="1" as="geometry">
            <mxPoint x="240" y="450" as="sourcePoint" />
            <mxPoint x="290" y="400" as="targetPoint" />
          </mxGeometry>
        </mxCell>
        <mxCell id="LxfW0TvHGFXh_5ghbKS4-31" value="" style="endArrow=classic;startArrow=classic;html=1;exitX=0.925;exitY=0;exitDx=0;exitDy=0;exitPerimeter=0;" edge="1" parent="1" source="LxfW0TvHGFXh_5ghbKS4-18">
          <mxGeometry width="50" height="50" relative="1" as="geometry">
            <mxPoint x="480" y="300" as="sourcePoint" />
            <mxPoint x="650" y="230" as="targetPoint" />
          </mxGeometry>
        </mxCell>
        <mxCell id="LxfW0TvHGFXh_5ghbKS4-32" value="callback req" style="edgeLabel;html=1;align=center;verticalAlign=middle;resizable=0;points=[];" vertex="1" connectable="0" parent="LxfW0TvHGFXh_5ghbKS4-31">
          <mxGeometry x="0.0326" y="-1" relative="1" as="geometry">
            <mxPoint as="offset" />
          </mxGeometry>
        </mxCell>
        <mxCell id="LxfW0TvHGFXh_5ghbKS4-34" value="" style="shape=image;verticalLabelPosition=bottom;labelBackgroundColor=#ffffff;verticalAlign=top;aspect=fixed;imageAspect=0;image=data:image/png,iVBORw0KGgoAAAANSUhEUgAAAZoAAAB7CAMAAAB6t7bCAAAAulBMVEX/////ZgCpta//YwD/YAD/WwD5+vqqtrD/17//xaH/+vXq7ez/dh3/2MOksar09fT/9Ovk5+X/sYX/hz3/fjP/4Mz/hUH/wqb/za//kk//8OX/59nT2db/gzv/bADGzsr/fCn/ml65w77/9/D/rHq2wLvZ3tz/t4v/8Ob/j03/mmjO1dH/5dP/yKf/pXD/y7H/vZb/mVr/dyT/cg//pnH/rof/upH/1Lj/oGb/nVr/lFj/rIL/qnX/lV+Egy71AAAQt0lEQVR4nO2di3LiuBKG7UjcDCEhQJYAwx0CG5JJYCawmcz7v9ax1ZKsS9uYgfiwW/prtmqDhQz6rFar1RKe5+Tk5OTk5OTk5OTk5OTk5OTk5OTk5OTk5OTk5OTk5OTk5OTk5OTk9B/V9FbIuiSvTP8Pn+s/rOLN4mk4nAyH/cZNSrHn1khor8MJZvLK6D3bPdt3hh6fy93gz7+D571GtdgPja1KVLB3uNzyET5ZljpBxb5QI0vxqiye0OzV4bxev2Kq10uTRTGhojUlUoW9dumuoFzqZPoWlQK1tV3dXWd6N6ZRWAHJ0OJBK7x1YXe44NpnHypLnVzFutA8qRVVDUXpqyp2uTHnWITqpT5e7XXBlyK1pXrpnsSX6Fumb1Ghvi1CqD9672aqwFIr+hBZ0DTDgiQLmgF8qiPQxK2INrZRei5Kl5DSN5MrW/U52h11NGr7Bd8UNOQh07dA0bD30+37Hxm2y0LTP1y6epWCplGqI2hCYRXnhCasodDM3hqxLgrN1eRw6b5sfBvNQukpdfhP/Plk1/SlaKJRKhzL+F90285UiabLQlNKc6hA86tENDGZ0uRp0Wgs+sNSCpsvQEPvAlB3vS5X7j4GlFdEtutMtai6GDSsEeuLQ4WrJVnYRNMQFBSnrNiYiK5jVf0laLTXgtvOA+85dHT0BOn8aHzK+jJSZ29pv+ZxNKVhNou2qLMugKC54T2kZDBYiNfNTvb1aNhdmmDpkEsHdHY0vbcHJhtDZYAbXOg10IIHLdqElWrU7bbm3WNu1VCd4wNZPmjC6StjQ46wI6Czo0lS9436aWgarNHrB2ad0DUmNzaaRRIZ2Z9Ma5kTmnACy9jQWaZ6YuWFpjMIP18qGjBVw/RqFjCkFy00fLqDzXXkKGTMaHNDE6yi6sixo01eaL5FnzwVDTzbpfSAABuR6lW710CnSep0T3Wk2+SGxmuz6uiRTlpeaFjoIxUNDCNXqRatWIKn30LDO02SF8Ev690mPzQe6zY0Y6BU6ILQ9BPmH4oavIiFpgEjTWKgB6Y8eqfKEc1f7OIev5ikC0LD2tscEHQN1aIqmskB1xu6m14gRzTXrKL7TBVJXRAabnVSQpxQIhyOTDTcB0sxhhDf0XzzHNH0onk4aWWqSOqC0HhsIpkW4qwKJ85EA05AmgtRtaMNOaK53Uatt8m+hhXpktBUD1gl7mg1bDRgz1Id77lVxKEBZUEDzZcSEBD2zEQD9ix9uvpkdawc0XS3zKAdt2xzUWiGdXv2oYiHAjwLDUwp04M8tg+XI5o2q+gbcqXba1+3w389ez6qo5n2omLYgqmBJghrDOvL/hgwNPicK0bTSLdLC0nOQANj/Dz1A9xYg02OaL5HF8mH8WrQnq1qA1oIRQatccego6Jpv7QGYTG6Xb1awUkNzfrzGxS8f7QxBtflUPLPMtM1u89rWWoX99QYTTE9xDmRVw00w8NDDffu1EBQjmhYhJN+aq8Fz61CvNjmE1qovWqPeoym90H5wg8hBWs5W0GzfCGyIPXvzJ7YjagNxIh3G/0VPRZReVqIFX+JGA2PwySMGbE9M9HMD7l2sm7VycgPTVCL6tOTXnorqtyE01mpn0Ki2Q2oVspYzo7RtGvaUisdGSPIMvwcpCbRbM0PwN/2KN+goIEBIeHxX8QAdDRQwaGg9dOV4Qfkh6YDLaa2qGzu8PGmsvNQ9WMINM8+ASSiGK1pI4NEU+YF5co38ctqwZPQpIY44bFn1k5HA053/cBSD181wNH4WxXNtKWiaabXy5UWeW6yyPNKeak94K3sb1b72X618fmC2yq2VhzNNSsaFnz7fKhBm9Naz6w+RNNjTU3J5uHzYwMFyUBjY6AZQLIc74tSBRRNWogTBqIJa1odTRYHjc9XVRdNQ6PFHjv645Qp5eLwek0lfmXa4strM153cP0Cj7xSCtBMI2NI6JilGgadEdQ1UqZIgKbsseVUuipHcIMdv4P2yOlopvtxpH3k2PursdRbnBOpouHry9gXBABwSUcDsctD+YUQolOwa2h8f9YRuhtoaMj2tYNKQ5aMBkCTjTJ6v0O7bVTDVGYDEqnJsRvQPNLo4ZetNf0ANi/xGzma56ig/ypffYGCal/V0QhlmteE7XeV6AYPlYdeR/N0OC7qyQhn7D0baJR8WMP4Kp1dE/mhVJ+IpsK7g5KfO90CBX04X4NBkuUiNINd+CJRV+6DN2jyOGEX0HTC4sRXk4B/QMHn+JWT0HCLhoQ4wfnl7Y+hOZTxwdHEfpyB5ngRonyhBDTLF3DEtBWBTsFsNHhZXzqI0Gz/IeaAcTuCkUt2QhjK/ole1NKzA2bh1BjEaWhg9oj4wVXV1OlosiXj8MB2bCxPRuMX/oqrR9Es32v28O55e7PNuNjj/028zHrNIHzvq15qB6xltwE0A/vukHemPAGnoblJamYZ2mSlEDQHsgq84sQo9tVoes97kSJIH7T2YI2h+KhqHfHAzd1EzbNjWrFbjcWfgCZKPjBZM5OmvP80NDxCbHlbcqmG6VLRkPF30OPnwzYco6BYOC/XGu12wzZ82AFJeMzFCCQ8eKvVysyiSYQSjVVhD16XQ9qJaPp4iLOqtauOxmxzXHmg8QmPdcSzyHD+92B872DX2YX/7ABksAnfVBClAQ2yhyRoaf4CR4NFT5k7F88LTkSTsGgDxEQhDU3RXopBb5MHGkvbzeyITPR7Gw0W7WcTJek/czQF06uIPhTrXzKseiKahEWbifaqjuaCeo2lf47a9/RgoSFbJLrfZsZzxP/iaAbInZhFi4NQp6J50voHlxLaZH/+a3qNP5gdAWdMTTT0B1JsyWanPq+Yx4HMJQcm5mjLBLhT0aCLNgt9BLrYsUaJrfM4PqHbV+TT4JrZaNDVS0gH5ZcADZ7lxtz0ggj+nIpGm1sKDXUrd6keGt23hTrvIhhJ6DjrkqONZoCuQDOvWITbOBq0cV9ZQZFtfSoamWymFtHt2eWi0SZ90x1fk4nnIAdkoZEDii5o8Z/wB59yojkhOzYqiWWNk9E07BAnGLk4RpB3NIBH0eI1yUxovDiAVvEyyUZjzTeZWIvTv+GPQA8iaIKkBJEAdzIaGPK1ECfL51DmofnG0Ahp/s30W19FzIDG20ENNXzXlykLDeoFCBeNB38YmoSOCbmJI/7XyWi0GDOUmBuwUDQnRp6TyQw64ons7rV+kwEN2J54JMY07fauO4+Pj/t9y3SezfgZ1y1D01TR/MILsgQ4QeN0NOCOKSHOqmnidDQsj/3k9ZpkNOpcrqmyyYKGu7YJSbXBsnP3G5JlmMX0TTTIPNITaFoqmp94QUDD14BOR2OFOKFbKN3o/KucKWTUNTCxzJ8dDQ8Uo9+9V1n5lBrpGxqaAn6OClvwIVtocUCT0C2j0I+/5W7e6Wj4REU2NfhWasYAlhtgh0R1QUqIkkGQFY2WttE9Gg04wYhFW499K6nGQoM3WXY0bM454HPOM6AxJpis6TWXTUcDvezQKSpg9hIyar4SzSO7Yk7Wb198NaeGypSw86JpnRmNYdH6dauAnoeW6cyB1Dy0r0QD7tRAd27bI7g7of62uZ+9vneiRMoP0w1IQHPLHK8MaCAD7owGzQhx2uEBA83E6laIoFBC9uZXouErxtqX58lOhA5mOyXHMiuape2h4WjO7QYYSwAwz9Em+waaLBOb9Jznr0Tj/WaXVF9rzckMHvV2siLPCYexIWhwL3t5ZufZWDhb2KFoA80iQ0qN5aDlhwYGG2XiEawgFmod+LSy5jV4ZwAb+cDRrJKd5/WZp5yebsOM0GYkA00VPbNGVz91f82Xoimrz3gknlGzsjZu2FNOPFP3WVtLi8LLCWGDMvsGIv/0LGiG8chvhjYjmbvS5of9gInpBWRGMzptXhMafFbNQIII7iENzVrImVoL0Am7pu+0heUITUJm9nctw+MsaJT5fwNpdhPN4dizPdRkjwYoRiU4Ohog3xSf6LCGau2JPjM/Ek008CTsmv4gagW/IjT4WR6/2KcSuTtnQcMTaKL/NUObkUw0DXt/syFuz1Sblz2GJhuxO9bimxnReCzHNR6onwus09ihYtYlJZroXWSDtThPlxcFWZiOoIup7KEoiBTDs6CJQ5yYPbPQ8IB/ikVDTuM4IvLc2jN9bI+OPCvXZJryTFvfUvSgoakU1PZXtYZkAMG2oyXYqGLzn3g57jxoGiLE2cDSOa0jHYBk8pZBftqGxi6P9RoQO6MmXnphWcuF71YxSBuTaNjnQ51iWEmTowsjhR4c9cxufC8YngeN7CxPps8byUJTRZpere3QGTV/pqxopgyvzOljK/u+HbjcUw0NrLUga2k8Dy0eAtnkpYWYvg+9f54HjdjoZC3VMNknO4EDhp2GFglGGiNekB8aT/cDIOmibBbagbWMAwCA0N6bzDxiNWuAMaU26x4sscoLyWjIMWjABC1ukDbF0PC4Mu6k8dC04SbkiIY5SjKHb6/nVHJ1IYNJQQNTVXvCAjnPSneCLQZ2mqeZ9o6jYfNc/NgBHA2EOId2aJNdtE8RhF52hQXSqodPEfxiNN+17Rl3MAXVi3T5GZ0KGhh7rG7D06qUXreE/TpmtymbeQk4msjrTDjiEEcDJmqOb+5E0IhTUZ+scA0nY61Q54hGP9Jhx26sz2vWI+H8KRFNGCpWupcN8Td9DHqB7qGPNt0NzGwP7a/5ZE46+rkT0CziA7QtM4WgEac81yf6y8U+ryT1xNovRgMbMoUfwMb3cLoUP+W3jxDv3OhoytA/NJPWA7tHtaEK+pee77ZsZtyVBnsc0JXuBDTiYce2nWNo+Nw0Ihn/NMpNXxzZbXtvOaIBL0hanBWPO79Hv6ISLNuzGlvupPtPqqHxYIZLX+LusONkDAP0CQXf4nlnm2/IVZfwcDTMWSBbLBcxAU18Drrtd6FoipLNVWky7Pf7T8O5/I0BOP25WLy5qVYbC/bOPNHMND+gw+9MB/e/P+5rPDuAjqYzA00XtvbTFhySErTHfHd60/CUYU3Ip5sKa/hgLTZUj9QsKxwNTyzZVuAe03U8uCWhkb8eYLtdKBqVTfSDAspPCoR4o98amsznpVJ0gc1g80TDhpd428VKDCzsF3I4p/C5NdF4O5GbWxv//Pl3i+8Apt+sqIxcm9uOf/18afJdV8bhDzgasTWI1vY/f84eNgnnBqgSv7mBHKOBoxHz04MC43Y6GpoZDeymGMk/7YMuaLPr2WjEURsQjxAQm0jC4fUAKTjSrVQCGvGkwFsJftqGJvFLNUjUMgmNV53Uk4mcGw1R3VUW8UpEM40MDvFlq1wbeaCEvETXbDTezojb+ZT8QIPM4eCi8yZ0bFDo4mi8ZUu9RwY0fF0Zi/UnovGKi8nVQTqAJhiTE6WOxZXoN7wKSWi8B/brX7Fb1f0gsiVD69OEK7OwEjMdoCs360LRlRVG4LqdaQVJy5pGhvMfQrZI3vrtp5J3lQVNFTs4mykZTfS2/qRUuqqnCaKlcDzYn0trwyV7KfHQvx67rBqi8n4ARwf5tdm1Umpn9Yne3UjYqVHq9sPea9MXdb5cI3tFoy+MJx3G91ANmleNhC3sV5OuFBtJb+HXQzcsTYd/JicPBe1OpfKcjFNRt/wcFT28we02KljZZakTvUdld33EAYROTk5OTk5OTk5OTk5OTk5OTk5OTk5OTk5OTk5OTk5OTk5OTk5OTk5OTv9+/Q8yFn5kyCoEgwAAAABJRU5ErkJggg==;" vertex="1" parent="1">
          <mxGeometry x="1042.5" y="561" width="83.33" height="25" as="geometry" />
        </mxCell>
        <mxCell id="LxfW0TvHGFXh_5ghbKS4-37" value="" style="endArrow=classic;startArrow=classic;html=1;exitX=-0.016;exitY=0.725;exitDx=0;exitDy=0;exitPerimeter=0;" edge="1" parent="1" source="LxfW0TvHGFXh_5ghbKS4-13">
          <mxGeometry width="50" height="50" relative="1" as="geometry">
            <mxPoint x="480" y="390" as="sourcePoint" />
            <mxPoint x="650" y="370" as="targetPoint" />
            <Array as="points">
              <mxPoint x="1190" y="626" />
              <mxPoint x="1190" y="400" />
              <mxPoint x="848" y="400" />
              <mxPoint x="650" y="400" />
            </Array>
          </mxGeometry>
        </mxCell>
        <mxCell id="LxfW0TvHGFXh_5ghbKS4-38" value="node info &amp;amp; status" style="edgeLabel;html=1;align=center;verticalAlign=middle;resizable=0;points=[];" vertex="1" connectable="0" parent="LxfW0TvHGFXh_5ghbKS4-37">
          <mxGeometry x="-0.0245" y="-1" relative="1" as="geometry">
            <mxPoint x="-1" as="offset" />
          </mxGeometry>
        </mxCell>
        <mxCell id="LxfW0TvHGFXh_5ghbKS4-39" value="callback queue" style="text;html=1;strokeColor=none;fillColor=none;align=center;verticalAlign=middle;whiteSpace=wrap;rounded=0;dashed=1;" vertex="1" parent="1">
          <mxGeometry x="1042.5" y="588.5" width="90" height="20" as="geometry" />
        </mxCell>
        <mxCell id="LxfW0TvHGFXh_5ghbKS4-41" value="" style="endArrow=classic;startArrow=classic;html=1;entryX=1;entryY=0.5;entryDx=0;entryDy=0;entryPerimeter=0;exitX=1;exitY=0.5;exitDx=0;exitDy=0;" edge="1" parent="1" source="LxfW0TvHGFXh_5ghbKS4-42" target="LxfW0TvHGFXh_5ghbKS4-13">
          <mxGeometry width="50" height="50" relative="1" as="geometry">
            <mxPoint x="848" y="620" as="sourcePoint" />
            <mxPoint x="700" y="520" as="targetPoint" />
          </mxGeometry>
        </mxCell>
        <mxCell id="LxfW0TvHGFXh_5ghbKS4-121" value="get callback msg" style="edgeLabel;html=1;align=center;verticalAlign=middle;resizable=0;points=[];" vertex="1" connectable="0" parent="LxfW0TvHGFXh_5ghbKS4-41">
          <mxGeometry x="-0.0972" relative="1" as="geometry">
            <mxPoint as="offset" />
          </mxGeometry>
        </mxCell>
        <mxCell id="LxfW0TvHGFXh_5ghbKS4-42" value="goroutine" style="rounded=1;whiteSpace=wrap;html=1;fillColor=#dae8fc;strokeColor=#6c8ebf;" vertex="1" parent="1">
          <mxGeometry x="505" y="610" width="90" height="50" as="geometry" />
        </mxCell>
        <mxCell id="LxfW0TvHGFXh_5ghbKS4-48" value="update node status" style="endArrow=classic;html=1;" edge="1" parent="1" source="LxfW0TvHGFXh_5ghbKS4-42" target="LxfW0TvHGFXh_5ghbKS4-12">
          <mxGeometry width="50" height="50" relative="1" as="geometry">
            <mxPoint x="510" y="700" as="sourcePoint" />
            <mxPoint x="560" y="650" as="targetPoint" />
          </mxGeometry>
        </mxCell>
        <mxCell id="LxfW0TvHGFXh_5ghbKS4-49" value="" style="endArrow=classic;startArrow=classic;html=1;exitX=0.25;exitY=0;exitDx=0;exitDy=0;entryX=0.25;entryY=1;entryDx=0;entryDy=0;" edge="1" parent="1" source="LxfW0TvHGFXh_5ghbKS4-18" target="LxfW0TvHGFXh_5ghbKS4-1">
          <mxGeometry width="50" height="50" relative="1" as="geometry">
            <mxPoint x="510" y="440" as="sourcePoint" />
            <mxPoint x="560" y="390" as="targetPoint" />
          </mxGeometry>
        </mxCell>
        <mxCell id="LxfW0TvHGFXh_5ghbKS4-54" value="create&lt;br&gt;flow" style="edgeLabel;html=1;align=center;verticalAlign=middle;resizable=0;points=[];" vertex="1" connectable="0" parent="LxfW0TvHGFXh_5ghbKS4-49">
          <mxGeometry y="-1" relative="1" as="geometry">
            <mxPoint x="1" as="offset" />
          </mxGeometry>
        </mxCell>
        <mxCell id="LxfW0TvHGFXh_5ghbKS4-50" value="" style="endArrow=classic;startArrow=classic;html=1;exitX=0.382;exitY=0;exitDx=0;exitDy=0;exitPerimeter=0;entryX=0.38;entryY=1.02;entryDx=0;entryDy=0;entryPerimeter=0;" edge="1" parent="1" source="LxfW0TvHGFXh_5ghbKS4-18" target="LxfW0TvHGFXh_5ghbKS4-1">
          <mxGeometry width="50" height="50" relative="1" as="geometry">
            <mxPoint x="510" y="440" as="sourcePoint" />
            <mxPoint x="560" y="390" as="targetPoint" />
          </mxGeometry>
        </mxCell>
        <mxCell id="LxfW0TvHGFXh_5ghbKS4-55" value="create&lt;br&gt;template" style="edgeLabel;html=1;align=center;verticalAlign=middle;resizable=0;points=[];" vertex="1" connectable="0" parent="LxfW0TvHGFXh_5ghbKS4-50">
          <mxGeometry x="-0.0338" relative="1" as="geometry">
            <mxPoint as="offset" />
          </mxGeometry>
        </mxCell>
        <mxCell id="LxfW0TvHGFXh_5ghbKS4-52" value="" style="endArrow=none;dashed=1;html=1;dashPattern=1 3;strokeWidth=2;" edge="1" parent="1">
          <mxGeometry width="50" height="50" relative="1" as="geometry">
            <mxPoint x="490" y="280" as="sourcePoint" />
            <mxPoint x="580" y="280" as="targetPoint" />
          </mxGeometry>
        </mxCell>
        <mxCell id="LxfW0TvHGFXh_5ghbKS4-53" value="other request" style="text;html=1;strokeColor=none;fillColor=none;align=center;verticalAlign=middle;whiteSpace=wrap;rounded=0;shadow=0;" vertex="1" parent="1">
          <mxGeometry x="400" y="270" width="90" height="20" as="geometry" />
        </mxCell>
        <mxCell id="LxfW0TvHGFXh_5ghbKS4-57" value="" style="endArrow=classic;startArrow=classic;html=1;exitX=1;exitY=0.5;exitDx=0;exitDy=0;entryX=0.38;entryY=1.04;entryDx=0;entryDy=0;entryPerimeter=0;" edge="1" parent="1" source="LxfW0TvHGFXh_5ghbKS4-26" target="LxfW0TvHGFXh_5ghbKS4-18">
          <mxGeometry width="50" height="50" relative="1" as="geometry">
            <mxPoint x="510" y="460" as="sourcePoint" />
            <mxPoint x="560" y="410" as="targetPoint" />
            <Array as="points">
              <mxPoint x="349" y="470" />
            </Array>
          </mxGeometry>
        </mxCell>
        <mxCell id="LxfW0TvHGFXh_5ghbKS4-59" value="update/create" style="edgeLabel;html=1;align=center;verticalAlign=middle;resizable=0;points=[];" vertex="1" connectable="0" parent="LxfW0TvHGFXh_5ghbKS4-57">
          <mxGeometry x="0.3848" y="1" relative="1" as="geometry">
            <mxPoint as="offset" />
          </mxGeometry>
        </mxCell>
        <mxCell id="LxfW0TvHGFXh_5ghbKS4-60" value="" style="endArrow=classic;startArrow=classic;html=1;entryX=1;entryY=0.5;entryDx=0;entryDy=0;" edge="1" parent="1" source="LxfW0TvHGFXh_5ghbKS4-11" target="LxfW0TvHGFXh_5ghbKS4-18">
          <mxGeometry width="50" height="50" relative="1" as="geometry">
            <mxPoint x="590" y="470" as="sourcePoint" />
            <mxPoint x="550" y="380" as="targetPoint" />
          </mxGeometry>
        </mxCell>
        <mxCell id="LxfW0TvHGFXh_5ghbKS4-61" value="get execute log dir" style="edgeLabel;html=1;align=center;verticalAlign=middle;resizable=0;points=[];" vertex="1" connectable="0" parent="LxfW0TvHGFXh_5ghbKS4-60">
          <mxGeometry x="0.0385" y="-2" relative="1" as="geometry">
            <mxPoint x="1" as="offset" />
          </mxGeometry>
        </mxCell>
        <mxCell id="LxfW0TvHGFXh_5ghbKS4-62" value="" style="endArrow=classic;startArrow=classic;html=1;exitX=0.5;exitY=0;exitDx=0;exitDy=0;exitPerimeter=0;entryX=0.75;entryY=1;entryDx=0;entryDy=0;" edge="1" parent="1" source="LxfW0TvHGFXh_5ghbKS4-12" target="LxfW0TvHGFXh_5ghbKS4-18">
          <mxGeometry width="50" height="50" relative="1" as="geometry">
            <mxPoint x="530" y="530" as="sourcePoint" />
            <mxPoint x="470" y="370" as="targetPoint" />
          </mxGeometry>
        </mxCell>
        <mxCell id="LxfW0TvHGFXh_5ghbKS4-63" value="save/update flow &amp;amp; template .etc" style="edgeLabel;html=1;align=center;verticalAlign=middle;resizable=0;points=[];" vertex="1" connectable="0" parent="LxfW0TvHGFXh_5ghbKS4-62">
          <mxGeometry x="0.087" y="-1" relative="1" as="geometry">
            <mxPoint as="offset" />
          </mxGeometry>
        </mxCell>
        <mxCell id="LxfW0TvHGFXh_5ghbKS4-65" value="" style="endArrow=classic;startArrow=classic;html=1;entryX=0.544;entryY=1.08;entryDx=0;entryDy=0;entryPerimeter=0;" edge="1" parent="1" source="LxfW0TvHGFXh_5ghbKS4-67" target="LxfW0TvHGFXh_5ghbKS4-18">
          <mxGeometry width="50" height="50" relative="1" as="geometry">
            <mxPoint x="439" y="770" as="sourcePoint" />
            <mxPoint x="440" y="580" as="targetPoint" />
          </mxGeometry>
        </mxCell>
        <mxCell id="LxfW0TvHGFXh_5ghbKS4-66" value="grpc" style="edgeLabel;html=1;align=center;verticalAlign=middle;resizable=0;points=[];" vertex="1" connectable="0" parent="LxfW0TvHGFXh_5ghbKS4-65">
          <mxGeometry x="0.1212" y="-2" relative="1" as="geometry">
            <mxPoint as="offset" />
          </mxGeometry>
        </mxCell>
        <mxCell id="LxfW0TvHGFXh_5ghbKS4-67" value="engine service" style="rounded=1;whiteSpace=wrap;html=1;shadow=0;fillColor=none;" vertex="1" parent="1">
          <mxGeometry x="255.19" y="895" width="376" height="60" as="geometry" />
        </mxCell>
        <mxCell id="LxfW0TvHGFXh_5ghbKS4-68" value="" style="endArrow=classic;startArrow=classic;html=1;exitX=0;exitY=0.5;exitDx=0;exitDy=0;entryX=0.451;entryY=1.05;entryDx=0;entryDy=0;entryPerimeter=0;" edge="1" parent="1" source="LxfW0TvHGFXh_5ghbKS4-67" target="LxfW0TvHGFXh_5ghbKS4-26">
          <mxGeometry width="50" height="50" relative="1" as="geometry">
            <mxPoint x="470" y="640" as="sourcePoint" />
            <mxPoint x="520" y="590" as="targetPoint" />
            <Array as="points">
              <mxPoint x="192" y="925" />
            </Array>
          </mxGeometry>
        </mxCell>
        <mxCell id="LxfW0TvHGFXh_5ghbKS4-71" value="clear finished flow" style="edgeLabel;html=1;align=center;verticalAlign=middle;resizable=0;points=[];" vertex="1" connectable="0" parent="LxfW0TvHGFXh_5ghbKS4-68">
          <mxGeometry x="0.0765" y="-1" relative="1" as="geometry">
            <mxPoint as="offset" />
          </mxGeometry>
        </mxCell>
        <mxCell id="LxfW0TvHGFXh_5ghbKS4-69" value="" style="endArrow=classic;startArrow=classic;html=1;entryX=0.5;entryY=1;entryDx=0;entryDy=0;" edge="1" parent="1" target="LxfW0TvHGFXh_5ghbKS4-42">
          <mxGeometry width="50" height="50" relative="1" as="geometry">
            <mxPoint x="550" y="894" as="sourcePoint" />
            <mxPoint x="550" y="670" as="targetPoint" />
          </mxGeometry>
        </mxCell>
        <mxCell id="LxfW0TvHGFXh_5ghbKS4-70" value="rotate node &amp;amp; flow" style="edgeLabel;html=1;align=center;verticalAlign=middle;resizable=0;points=[];" vertex="1" connectable="0" parent="LxfW0TvHGFXh_5ghbKS4-69">
          <mxGeometry x="0.0603" y="1" relative="1" as="geometry">
            <mxPoint as="offset" />
          </mxGeometry>
        </mxCell>
        <mxCell id="LxfW0TvHGFXh_5ghbKS4-72" value="" style="rounded=1;whiteSpace=wrap;html=1;dashed=1;" vertex="1" parent="1">
          <mxGeometry x="760" y="760" width="1220" height="440" as="geometry" />
        </mxCell>
        <mxCell id="LxfW0TvHGFXh_5ghbKS4-74" value="goroutine" style="rounded=1;whiteSpace=wrap;html=1;fillColor=#dae8fc;strokeColor=#6c8ebf;" vertex="1" parent="1">
          <mxGeometry x="1150" y="905" width="100" height="40" as="geometry" />
        </mxCell>
        <mxCell id="LxfW0TvHGFXh_5ghbKS4-75" value="" style="endArrow=classic;html=1;entryX=0;entryY=0.5;entryDx=0;entryDy=0;exitX=1;exitY=0.5;exitDx=0;exitDy=0;exitPerimeter=0;" edge="1" parent="1" source="LxfW0TvHGFXh_5ghbKS4-114" target="LxfW0TvHGFXh_5ghbKS4-74">
          <mxGeometry width="50" height="50" relative="1" as="geometry">
            <mxPoint x="996" y="925" as="sourcePoint" />
            <mxPoint x="1026" y="880" as="targetPoint" />
            <Array as="points" />
          </mxGeometry>
        </mxCell>
        <mxCell id="LxfW0TvHGFXh_5ghbKS4-76" value="send task context" style="edgeLabel;html=1;align=center;verticalAlign=middle;resizable=0;points=[];" vertex="1" connectable="0" parent="LxfW0TvHGFXh_5ghbKS4-75">
          <mxGeometry x="-0.2444" y="-1" relative="1" as="geometry">
            <mxPoint x="16" y="-16" as="offset" />
          </mxGeometry>
        </mxCell>
        <mxCell id="LxfW0TvHGFXh_5ghbKS4-77" value="callback &amp;amp; rotate process" style="endArrow=classic;html=1;entryX=0.992;entryY=0.8;entryDx=0;entryDy=0;entryPerimeter=0;exitX=0;exitY=0.75;exitDx=0;exitDy=0;" edge="1" parent="1" source="LxfW0TvHGFXh_5ghbKS4-74" target="LxfW0TvHGFXh_5ghbKS4-114">
          <mxGeometry x="-0.0181" y="14" width="50" height="50" relative="1" as="geometry">
            <mxPoint x="1096" y="930" as="sourcePoint" />
            <mxPoint x="1000.028" y="931.99" as="targetPoint" />
            <Array as="points" />
            <mxPoint as="offset" />
          </mxGeometry>
        </mxCell>
        <mxCell id="LxfW0TvHGFXh_5ghbKS4-79" value="" style="endArrow=classic;startArrow=classic;html=1;exitX=1;exitY=0.5;exitDx=0;exitDy=0;" edge="1" parent="1" source="LxfW0TvHGFXh_5ghbKS4-67">
          <mxGeometry width="50" height="50" relative="1" as="geometry">
            <mxPoint x="820" y="925" as="sourcePoint" />
            <mxPoint x="820" y="925" as="targetPoint" />
          </mxGeometry>
        </mxCell>
        <mxCell id="LxfW0TvHGFXh_5ghbKS4-113" value="send plugin id" style="edgeLabel;html=1;align=center;verticalAlign=middle;resizable=0;points=[];" vertex="1" connectable="0" parent="LxfW0TvHGFXh_5ghbKS4-79">
          <mxGeometry x="-0.0807" y="-1" relative="1" as="geometry">
            <mxPoint x="1" as="offset" />
          </mxGeometry>
        </mxCell>
        <mxCell id="LxfW0TvHGFXh_5ghbKS4-81" value="" style="endArrow=classic;html=1;entryX=0.4;entryY=0;entryDx=0;entryDy=0;exitX=1;exitY=0.5;exitDx=0;exitDy=0;exitPerimeter=0;entryPerimeter=0;" edge="1" parent="1" source="LxfW0TvHGFXh_5ghbKS4-135" target="LxfW0TvHGFXh_5ghbKS4-74">
          <mxGeometry width="50" height="50" relative="1" as="geometry">
            <mxPoint x="996" y="815" as="sourcePoint" />
            <mxPoint x="1196" y="905" as="targetPoint" />
            <Array as="points">
              <mxPoint x="1190" y="820" />
            </Array>
          </mxGeometry>
        </mxCell>
        <mxCell id="LxfW0TvHGFXh_5ghbKS4-82" value="send shut down signal" style="edgeLabel;html=1;align=center;verticalAlign=middle;resizable=0;points=[];" vertex="1" connectable="0" parent="LxfW0TvHGFXh_5ghbKS4-81">
          <mxGeometry x="-0.0199" relative="1" as="geometry">
            <mxPoint x="-28" as="offset" />
          </mxGeometry>
        </mxCell>
        <mxCell id="LxfW0TvHGFXh_5ghbKS4-83" value="" style="endArrow=classic;html=1;exitX=1;exitY=0.5;exitDx=0;exitDy=0;entryX=0;entryY=0.5;entryDx=0;entryDy=0;" edge="1" parent="1" source="LxfW0TvHGFXh_5ghbKS4-74" target="LxfW0TvHGFXh_5ghbKS4-85">
          <mxGeometry width="50" height="50" relative="1" as="geometry">
            <mxPoint x="1230" y="920" as="sourcePoint" />
            <mxPoint x="1270" y="925" as="targetPoint" />
          </mxGeometry>
        </mxCell>
        <mxCell id="LxfW0TvHGFXh_5ghbKS4-84" value="new" style="edgeLabel;html=1;align=center;verticalAlign=middle;resizable=0;points=[];" vertex="1" connectable="0" parent="LxfW0TvHGFXh_5ghbKS4-83">
          <mxGeometry x="0.1364" relative="1" as="geometry">
            <mxPoint x="-4" as="offset" />
          </mxGeometry>
        </mxCell>
        <mxCell id="LxfW0TvHGFXh_5ghbKS4-85" value="plugin obj" style="shape=document;whiteSpace=wrap;html=1;boundedLbl=1;fillColor=#d5e8d4;strokeColor=#82b366;size=0.125;" vertex="1" parent="1">
          <mxGeometry x="1310" y="905" width="90" height="40" as="geometry" />
        </mxCell>
        <mxCell id="LxfW0TvHGFXh_5ghbKS4-86" value="" style="ellipse;shape=cloud;whiteSpace=wrap;html=1;dashed=1;" vertex="1" parent="1">
          <mxGeometry x="1460" y="840" width="470" height="350" as="geometry" />
        </mxCell>
        <mxCell id="LxfW0TvHGFXh_5ghbKS4-87" value="" style="endArrow=classic;html=1;exitX=1;exitY=0.5;exitDx=0;exitDy=0;entryX=0;entryY=0.5;entryDx=0;entryDy=0;entryPerimeter=0;" edge="1" parent="1" source="LxfW0TvHGFXh_5ghbKS4-85" target="LxfW0TvHGFXh_5ghbKS4-89">
          <mxGeometry width="50" height="50" relative="1" as="geometry">
            <mxPoint x="1430" y="1000" as="sourcePoint" />
            <mxPoint x="1490" y="979" as="targetPoint" />
          </mxGeometry>
        </mxCell>
        <mxCell id="LxfW0TvHGFXh_5ghbKS4-88" value="execute" style="edgeLabel;html=1;align=center;verticalAlign=middle;resizable=0;points=[];" vertex="1" connectable="0" parent="LxfW0TvHGFXh_5ghbKS4-87">
          <mxGeometry x="-0.1016" y="-1" relative="1" as="geometry">
            <mxPoint as="offset" />
          </mxGeometry>
        </mxCell>
        <mxCell id="LxfW0TvHGFXh_5ghbKS4-89" value="exec" style="shape=note;whiteSpace=wrap;html=1;backgroundOutline=1;darkOpacity=0.05;size=12;fillColor=#d5e8d4;strokeColor=#82b366;" vertex="1" parent="1">
          <mxGeometry x="1590" y="945" width="30" height="40" as="geometry" />
        </mxCell>
        <mxCell id="LxfW0TvHGFXh_5ghbKS4-90" value="work_dir" style="swimlane;fontStyle=0;childLayout=stackLayout;horizontal=1;startSize=26;horizontalStack=0;resizeParent=1;resizeParentMax=0;resizeLast=0;collapsible=1;marginBottom=0;" vertex="1" parent="1">
          <mxGeometry x="1640" y="1010" width="140" height="104" as="geometry" />
        </mxCell>
        <mxCell id="LxfW0TvHGFXh_5ghbKS4-91" value="metadata.json" style="text;strokeColor=#666666;fillColor=#f5f5f5;align=left;verticalAlign=top;spacingLeft=4;spacingRight=4;overflow=hidden;rotatable=0;points=[[0,0.5],[1,0.5]];portConstraint=eastwest;fontColor=#333333;" vertex="1" parent="LxfW0TvHGFXh_5ghbKS4-90">
          <mxGeometry y="26" width="140" height="26" as="geometry" />
        </mxCell>
        <mxCell id="LxfW0TvHGFXh_5ghbKS4-92" value="result.json" style="text;strokeColor=#b85450;fillColor=#f8cecc;align=left;verticalAlign=top;spacingLeft=4;spacingRight=4;overflow=hidden;rotatable=0;points=[[0,0.5],[1,0.5]];portConstraint=eastwest;" vertex="1" parent="LxfW0TvHGFXh_5ghbKS4-90">
          <mxGeometry y="52" width="140" height="26" as="geometry" />
        </mxCell>
        <mxCell id="LxfW0TvHGFXh_5ghbKS4-93" value="stdout.log" style="text;strokeColor=#314354;fillColor=#647687;align=left;verticalAlign=top;spacingLeft=4;spacingRight=4;overflow=hidden;rotatable=0;points=[[0,0.5],[1,0.5]];portConstraint=eastwest;fontColor=#ffffff;" vertex="1" parent="LxfW0TvHGFXh_5ghbKS4-90">
          <mxGeometry y="78" width="140" height="26" as="geometry" />
        </mxCell>
        <mxCell id="LxfW0TvHGFXh_5ghbKS4-94" value="" style="endArrow=classic;html=1;exitX=0;exitY=0;exitDx=30;exitDy=26;exitPerimeter=0;" edge="1" parent="1" source="LxfW0TvHGFXh_5ghbKS4-89">
          <mxGeometry width="50" height="50" relative="1" as="geometry">
            <mxPoint x="1430" y="1000" as="sourcePoint" />
            <mxPoint x="1710" y="1010" as="targetPoint" />
            <Array as="points">
              <mxPoint x="1710" y="971" />
            </Array>
          </mxGeometry>
        </mxCell>
        <mxCell id="LxfW0TvHGFXh_5ghbKS4-95" value="write &amp;amp; clear" style="edgeLabel;html=1;align=center;verticalAlign=middle;resizable=0;points=[];" vertex="1" connectable="0" parent="LxfW0TvHGFXh_5ghbKS4-94">
          <mxGeometry x="0.0388" relative="1" as="geometry">
            <mxPoint as="offset" />
          </mxGeometry>
        </mxCell>
        <mxCell id="LxfW0TvHGFXh_5ghbKS4-96" value="" style="endArrow=classic;html=1;exitX=0;exitY=0.5;exitDx=0;exitDy=0;entryX=0.5;entryY=1;entryDx=0;entryDy=0;entryPerimeter=0;" edge="1" parent="1" source="LxfW0TvHGFXh_5ghbKS4-92" target="LxfW0TvHGFXh_5ghbKS4-89">
          <mxGeometry width="50" height="50" relative="1" as="geometry">
            <mxPoint x="1430" y="1000" as="sourcePoint" />
            <mxPoint x="1480" y="950" as="targetPoint" />
            <Array as="points">
              <mxPoint x="1605" y="1075" />
            </Array>
          </mxGeometry>
        </mxCell>
        <mxCell id="LxfW0TvHGFXh_5ghbKS4-97" value="read meta data" style="edgeLabel;html=1;align=center;verticalAlign=middle;resizable=0;points=[];" vertex="1" connectable="0" parent="LxfW0TvHGFXh_5ghbKS4-96">
          <mxGeometry x="-0.28" y="1" relative="1" as="geometry">
            <mxPoint as="offset" />
          </mxGeometry>
        </mxCell>
        <mxCell id="LxfW0TvHGFXh_5ghbKS4-99" value="nas&#xa;" style="text;strokeColor=none;fillColor=none;align=left;verticalAlign=top;spacingLeft=4;spacingRight=4;overflow=hidden;rotatable=0;points=[[0,0.5],[1,0.5]];portConstraint=eastwest;fontStyle=1" vertex="1" parent="1">
          <mxGeometry x="1790" y="934" width="60" height="26" as="geometry" />
        </mxCell>
        <mxCell id="LxfW0TvHGFXh_5ghbKS4-102" value="" style="endArrow=classic;html=1;exitX=0.75;exitY=0;exitDx=0;exitDy=0;entryX=1;entryY=0.5;entryDx=0;entryDy=0;entryPerimeter=0;" edge="1" parent="1" source="LxfW0TvHGFXh_5ghbKS4-85" target="LxfW0TvHGFXh_5ghbKS4-11">
          <mxGeometry width="50" height="50" relative="1" as="geometry">
            <mxPoint x="1060" y="1070" as="sourcePoint" />
            <mxPoint x="1060" y="1012.5" as="targetPoint" />
            <Array as="points">
              <mxPoint x="1378" y="345" />
            </Array>
          </mxGeometry>
        </mxCell>
        <mxCell id="LxfW0TvHGFXh_5ghbKS4-103" value="write execute log info" style="edgeLabel;html=1;align=center;verticalAlign=middle;resizable=0;points=[];" vertex="1" connectable="0" parent="LxfW0TvHGFXh_5ghbKS4-102">
          <mxGeometry x="0.1478" y="2" relative="1" as="geometry">
            <mxPoint x="-9" y="-4" as="offset" />
          </mxGeometry>
        </mxCell>
        <mxCell id="LxfW0TvHGFXh_5ghbKS4-108" value="" style="endArrow=classic;html=1;entryX=1;entryY=0.5;entryDx=0;entryDy=0;" edge="1" parent="1" target="LxfW0TvHGFXh_5ghbKS4-119">
          <mxGeometry width="50" height="50" relative="1" as="geometry">
            <mxPoint x="1604" y="945" as="sourcePoint" />
            <mxPoint x="1405.6106450859274" y="69.75284596732854" as="targetPoint" />
            <Array as="points">
              <mxPoint x="1600" y="50" />
            </Array>
          </mxGeometry>
        </mxCell>
        <mxCell id="LxfW0TvHGFXh_5ghbKS4-109" value="send callback url" style="edgeLabel;html=1;align=center;verticalAlign=middle;resizable=0;points=[];" vertex="1" connectable="0" parent="LxfW0TvHGFXh_5ghbKS4-108">
          <mxGeometry x="0.0556" y="-4" relative="1" as="geometry">
            <mxPoint as="offset" />
          </mxGeometry>
        </mxCell>
        <mxCell id="LxfW0TvHGFXh_5ghbKS4-112" value="&lt;h1&gt;&lt;b&gt;Job&lt;/b&gt;&lt;/h1&gt;" style="text;html=1;strokeColor=none;fillColor=none;align=center;verticalAlign=middle;whiteSpace=wrap;rounded=0;dashed=1;" vertex="1" parent="1">
          <mxGeometry x="1860" y="780" width="40" height="20" as="geometry" />
        </mxCell>
        <mxCell id="LxfW0TvHGFXh_5ghbKS4-114" value="" style="verticalLabelPosition=bottom;verticalAlign=top;html=1;shape=mxgraph.flowchart.parallel_mode;pointerEvents=1;rotation=0;" vertex="1" parent="1">
          <mxGeometry x="827" y="905" width="120" height="40" as="geometry" />
        </mxCell>
        <mxCell id="LxfW0TvHGFXh_5ghbKS4-117" value="" style="endArrow=classic;html=1;exitX=0.25;exitY=0;exitDx=0;exitDy=0;entryX=0;entryY=0.5;entryDx=0;entryDy=0;entryPerimeter=0;" edge="1" parent="1" source="LxfW0TvHGFXh_5ghbKS4-85" target="LxfW0TvHGFXh_5ghbKS4-13">
          <mxGeometry width="50" height="50" relative="1" as="geometry">
            <mxPoint x="990" y="760" as="sourcePoint" />
            <mxPoint x="1230" y="670" as="targetPoint" />
            <Array as="points">
              <mxPoint x="1333" y="635" />
            </Array>
          </mxGeometry>
        </mxCell>
        <mxCell id="LxfW0TvHGFXh_5ghbKS4-118" value="node info / status" style="edgeLabel;html=1;align=center;verticalAlign=middle;resizable=0;points=[];" vertex="1" connectable="0" parent="LxfW0TvHGFXh_5ghbKS4-117">
          <mxGeometry x="-0.0266" relative="1" as="geometry">
            <mxPoint as="offset" />
          </mxGeometry>
        </mxCell>
        <mxCell id="LxfW0TvHGFXh_5ghbKS4-119" value="other services" style="rounded=1;whiteSpace=wrap;html=1;shadow=0;fillColor=#d5e8d4;strokeColor=#82b366;" vertex="1" parent="1">
          <mxGeometry x="595" y="20" width="120" height="60" as="geometry" />
        </mxCell>
        <mxCell id="LxfW0TvHGFXh_5ghbKS4-120" value="" style="endArrow=classic;html=1;entryX=0.931;entryY=0;entryDx=0;entryDy=0;entryPerimeter=0;exitX=0.5;exitY=1;exitDx=0;exitDy=0;" edge="1" parent="1" source="LxfW0TvHGFXh_5ghbKS4-119" target="LxfW0TvHGFXh_5ghbKS4-1">
          <mxGeometry width="50" height="50" relative="1" as="geometry">
            <mxPoint x="790" y="210" as="sourcePoint" />
            <mxPoint x="840" y="160" as="targetPoint" />
          </mxGeometry>
        </mxCell>
        <mxCell id="LxfW0TvHGFXh_5ghbKS4-124" value="&lt;h1&gt;&lt;b&gt;Engine&lt;/b&gt;&lt;/h1&gt;" style="text;html=1;strokeColor=none;fillColor=none;align=center;verticalAlign=middle;whiteSpace=wrap;rounded=0;dashed=1;" vertex="1" parent="1">
          <mxGeometry x="110" y="925" width="40" height="20" as="geometry" />
        </mxCell>
        <mxCell id="LxfW0TvHGFXh_5ghbKS4-125" value="" style="rounded=1;whiteSpace=wrap;html=1;shadow=0;dashed=1;fillColor=none;" vertex="1" parent="1">
          <mxGeometry x="50" y="120" width="740" height="310" as="geometry" />
        </mxCell>
        <mxCell id="LxfW0TvHGFXh_5ghbKS4-127" value="&lt;h1&gt;&lt;b&gt;Admin&lt;/b&gt;&lt;/h1&gt;" style="text;html=1;strokeColor=none;fillColor=none;align=center;verticalAlign=middle;whiteSpace=wrap;rounded=0;dashed=1;" vertex="1" parent="1">
          <mxGeometry x="90" y="140" width="40" height="20" as="geometry" />
        </mxCell>
        <mxCell id="LxfW0TvHGFXh_5ghbKS4-130" value="" style="shape=image;verticalLabelPosition=bottom;labelBackgroundColor=#ffffff;verticalAlign=top;aspect=fixed;imageAspect=0;image=data:image/png,iVBORw0KGgoAAAANSUhEUgAAAZoAAAB7CAMAAAB6t7bCAAAAulBMVEX/////ZgCpta//YwD/YAD/WwD5+vqqtrD/17//xaH/+vXq7ez/dh3/2MOksar09fT/9Ovk5+X/sYX/hz3/fjP/4Mz/hUH/wqb/za//kk//8OX/59nT2db/gzv/bADGzsr/fCn/ml65w77/9/D/rHq2wLvZ3tz/t4v/8Ob/j03/mmjO1dH/5dP/yKf/pXD/y7H/vZb/mVr/dyT/cg//pnH/rof/upH/1Lj/oGb/nVr/lFj/rIL/qnX/lV+Egy71AAAQt0lEQVR4nO2di3LiuBKG7UjcDCEhQJYAwx0CG5JJYCawmcz7v9ax1ZKsS9uYgfiwW/prtmqDhQz6rFar1RKe5+Tk5OTk5OTk5OTk5OTk5OTk5OTk5OTk5OTk5OTk5OTk5OTk5OTk9B/V9FbIuiSvTP8Pn+s/rOLN4mk4nAyH/cZNSrHn1khor8MJZvLK6D3bPdt3hh6fy93gz7+D571GtdgPja1KVLB3uNzyET5ZljpBxb5QI0vxqiye0OzV4bxev2Kq10uTRTGhojUlUoW9dumuoFzqZPoWlQK1tV3dXWd6N6ZRWAHJ0OJBK7x1YXe44NpnHypLnVzFutA8qRVVDUXpqyp2uTHnWITqpT5e7XXBlyK1pXrpnsSX6Fumb1Ghvi1CqD9672aqwFIr+hBZ0DTDgiQLmgF8qiPQxK2INrZRei5Kl5DSN5MrW/U52h11NGr7Bd8UNOQh07dA0bD30+37Hxm2y0LTP1y6epWCplGqI2hCYRXnhCasodDM3hqxLgrN1eRw6b5sfBvNQukpdfhP/Plk1/SlaKJRKhzL+F90285UiabLQlNKc6hA86tENDGZ0uRp0Wgs+sNSCpsvQEPvAlB3vS5X7j4GlFdEtutMtai6GDSsEeuLQ4WrJVnYRNMQFBSnrNiYiK5jVf0laLTXgtvOA+85dHT0BOn8aHzK+jJSZ29pv+ZxNKVhNou2qLMugKC54T2kZDBYiNfNTvb1aNhdmmDpkEsHdHY0vbcHJhtDZYAbXOg10IIHLdqElWrU7bbm3WNu1VCd4wNZPmjC6StjQ46wI6Czo0lS9436aWgarNHrB2ad0DUmNzaaRRIZ2Z9Ma5kTmnACy9jQWaZ6YuWFpjMIP18qGjBVw/RqFjCkFy00fLqDzXXkKGTMaHNDE6yi6sixo01eaL5FnzwVDTzbpfSAABuR6lW710CnSep0T3Wk2+SGxmuz6uiRTlpeaFjoIxUNDCNXqRatWIKn30LDO02SF8Ev690mPzQe6zY0Y6BU6ILQ9BPmH4oavIiFpgEjTWKgB6Y8eqfKEc1f7OIev5ikC0LD2tscEHQN1aIqmskB1xu6m14gRzTXrKL7TBVJXRAabnVSQpxQIhyOTDTcB0sxhhDf0XzzHNH0onk4aWWqSOqC0HhsIpkW4qwKJ85EA05AmgtRtaMNOaK53Uatt8m+hhXpktBUD1gl7mg1bDRgz1Id77lVxKEBZUEDzZcSEBD2zEQD9ix9uvpkdawc0XS3zKAdt2xzUWiGdXv2oYiHAjwLDUwp04M8tg+XI5o2q+gbcqXba1+3w389ez6qo5n2omLYgqmBJghrDOvL/hgwNPicK0bTSLdLC0nOQANj/Dz1A9xYg02OaL5HF8mH8WrQnq1qA1oIRQatccego6Jpv7QGYTG6Xb1awUkNzfrzGxS8f7QxBtflUPLPMtM1u89rWWoX99QYTTE9xDmRVw00w8NDDffu1EBQjmhYhJN+aq8Fz61CvNjmE1qovWqPeoym90H5wg8hBWs5W0GzfCGyIPXvzJ7YjagNxIh3G/0VPRZReVqIFX+JGA2PwySMGbE9M9HMD7l2sm7VycgPTVCL6tOTXnorqtyE01mpn0Ki2Q2oVspYzo7RtGvaUisdGSPIMvwcpCbRbM0PwN/2KN+goIEBIeHxX8QAdDRQwaGg9dOV4Qfkh6YDLaa2qGzu8PGmsvNQ9WMINM8+ASSiGK1pI4NEU+YF5co38ctqwZPQpIY44bFn1k5HA053/cBSD181wNH4WxXNtKWiaabXy5UWeW6yyPNKeak94K3sb1b72X618fmC2yq2VhzNNSsaFnz7fKhBm9Naz6w+RNNjTU3J5uHzYwMFyUBjY6AZQLIc74tSBRRNWogTBqIJa1odTRYHjc9XVRdNQ6PFHjv645Qp5eLwek0lfmXa4strM153cP0Cj7xSCtBMI2NI6JilGgadEdQ1UqZIgKbsseVUuipHcIMdv4P2yOlopvtxpH3k2PursdRbnBOpouHry9gXBABwSUcDsctD+YUQolOwa2h8f9YRuhtoaMj2tYNKQ5aMBkCTjTJ6v0O7bVTDVGYDEqnJsRvQPNLo4ZetNf0ANi/xGzma56ig/ypffYGCal/V0QhlmteE7XeV6AYPlYdeR/N0OC7qyQhn7D0baJR8WMP4Kp1dE/mhVJ+IpsK7g5KfO90CBX04X4NBkuUiNINd+CJRV+6DN2jyOGEX0HTC4sRXk4B/QMHn+JWT0HCLhoQ4wfnl7Y+hOZTxwdHEfpyB5ngRonyhBDTLF3DEtBWBTsFsNHhZXzqI0Gz/IeaAcTuCkUt2QhjK/ole1NKzA2bh1BjEaWhg9oj4wVXV1OlosiXj8MB2bCxPRuMX/oqrR9Es32v28O55e7PNuNjj/028zHrNIHzvq15qB6xltwE0A/vukHemPAGnoblJamYZ2mSlEDQHsgq84sQo9tVoes97kSJIH7T2YI2h+KhqHfHAzd1EzbNjWrFbjcWfgCZKPjBZM5OmvP80NDxCbHlbcqmG6VLRkPF30OPnwzYco6BYOC/XGu12wzZ82AFJeMzFCCQ8eKvVysyiSYQSjVVhD16XQ9qJaPp4iLOqtauOxmxzXHmg8QmPdcSzyHD+92B872DX2YX/7ABksAnfVBClAQ2yhyRoaf4CR4NFT5k7F88LTkSTsGgDxEQhDU3RXopBb5MHGkvbzeyITPR7Gw0W7WcTJek/czQF06uIPhTrXzKseiKahEWbifaqjuaCeo2lf47a9/RgoSFbJLrfZsZzxP/iaAbInZhFi4NQp6J50voHlxLaZH/+a3qNP5gdAWdMTTT0B1JsyWanPq+Yx4HMJQcm5mjLBLhT0aCLNgt9BLrYsUaJrfM4PqHbV+TT4JrZaNDVS0gH5ZcADZ7lxtz0ggj+nIpGm1sKDXUrd6keGt23hTrvIhhJ6DjrkqONZoCuQDOvWITbOBq0cV9ZQZFtfSoamWymFtHt2eWi0SZ90x1fk4nnIAdkoZEDii5o8Z/wB59yojkhOzYqiWWNk9E07BAnGLk4RpB3NIBH0eI1yUxovDiAVvEyyUZjzTeZWIvTv+GPQA8iaIKkBJEAdzIaGPK1ECfL51DmofnG0Ahp/s30W19FzIDG20ENNXzXlykLDeoFCBeNB38YmoSOCbmJI/7XyWi0GDOUmBuwUDQnRp6TyQw64ons7rV+kwEN2J54JMY07fauO4+Pj/t9y3SezfgZ1y1D01TR/MILsgQ4QeN0NOCOKSHOqmnidDQsj/3k9ZpkNOpcrqmyyYKGu7YJSbXBsnP3G5JlmMX0TTTIPNITaFoqmp94QUDD14BOR2OFOKFbKN3o/KucKWTUNTCxzJ8dDQ8Uo9+9V1n5lBrpGxqaAn6OClvwIVtocUCT0C2j0I+/5W7e6Wj4REU2NfhWasYAlhtgh0R1QUqIkkGQFY2WttE9Gg04wYhFW499K6nGQoM3WXY0bM454HPOM6AxJpis6TWXTUcDvezQKSpg9hIyar4SzSO7Yk7Wb198NaeGypSw86JpnRmNYdH6dauAnoeW6cyB1Dy0r0QD7tRAd27bI7g7of62uZ+9vneiRMoP0w1IQHPLHK8MaCAD7owGzQhx2uEBA83E6laIoFBC9uZXouErxtqX58lOhA5mOyXHMiuape2h4WjO7QYYSwAwz9Em+waaLBOb9Jznr0Tj/WaXVF9rzckMHvV2siLPCYexIWhwL3t5ZufZWDhb2KFoA80iQ0qN5aDlhwYGG2XiEawgFmod+LSy5jV4ZwAb+cDRrJKd5/WZp5yebsOM0GYkA00VPbNGVz91f82Xoimrz3gknlGzsjZu2FNOPFP3WVtLi8LLCWGDMvsGIv/0LGiG8chvhjYjmbvS5of9gInpBWRGMzptXhMafFbNQIII7iENzVrImVoL0Am7pu+0heUITUJm9nctw+MsaJT5fwNpdhPN4dizPdRkjwYoRiU4Ohog3xSf6LCGau2JPjM/Ek008CTsmv4gagW/IjT4WR6/2KcSuTtnQcMTaKL/NUObkUw0DXt/syFuz1Sblz2GJhuxO9bimxnReCzHNR6onwus09ihYtYlJZroXWSDtThPlxcFWZiOoIup7KEoiBTDs6CJQ5yYPbPQ8IB/ikVDTuM4IvLc2jN9bI+OPCvXZJryTFvfUvSgoakU1PZXtYZkAMG2oyXYqGLzn3g57jxoGiLE2cDSOa0jHYBk8pZBftqGxi6P9RoQO6MmXnphWcuF71YxSBuTaNjnQ51iWEmTowsjhR4c9cxufC8YngeN7CxPps8byUJTRZpere3QGTV/pqxopgyvzOljK/u+HbjcUw0NrLUga2k8Dy0eAtnkpYWYvg+9f54HjdjoZC3VMNknO4EDhp2GFglGGiNekB8aT/cDIOmibBbagbWMAwCA0N6bzDxiNWuAMaU26x4sscoLyWjIMWjABC1ukDbF0PC4Mu6k8dC04SbkiIY5SjKHb6/nVHJ1IYNJQQNTVXvCAjnPSneCLQZ2mqeZ9o6jYfNc/NgBHA2EOId2aJNdtE8RhF52hQXSqodPEfxiNN+17Rl3MAXVi3T5GZ0KGhh7rG7D06qUXreE/TpmtymbeQk4msjrTDjiEEcDJmqOb+5E0IhTUZ+scA0nY61Q54hGP9Jhx26sz2vWI+H8KRFNGCpWupcN8Td9DHqB7qGPNt0NzGwP7a/5ZE46+rkT0CziA7QtM4WgEac81yf6y8U+ryT1xNovRgMbMoUfwMb3cLoUP+W3jxDv3OhoytA/NJPWA7tHtaEK+pee77ZsZtyVBnsc0JXuBDTiYce2nWNo+Nw0Ihn/NMpNXxzZbXtvOaIBL0hanBWPO79Hv6ISLNuzGlvupPtPqqHxYIZLX+LusONkDAP0CQXf4nlnm2/IVZfwcDTMWSBbLBcxAU18Drrtd6FoipLNVWky7Pf7T8O5/I0BOP25WLy5qVYbC/bOPNHMND+gw+9MB/e/P+5rPDuAjqYzA00XtvbTFhySErTHfHd60/CUYU3Ip5sKa/hgLTZUj9QsKxwNTyzZVuAe03U8uCWhkb8eYLtdKBqVTfSDAspPCoR4o98amsznpVJ0gc1g80TDhpd428VKDCzsF3I4p/C5NdF4O5GbWxv//Pl3i+8Apt+sqIxcm9uOf/18afJdV8bhDzgasTWI1vY/f84eNgnnBqgSv7mBHKOBoxHz04MC43Y6GpoZDeymGMk/7YMuaLPr2WjEURsQjxAQm0jC4fUAKTjSrVQCGvGkwFsJftqGJvFLNUjUMgmNV53Uk4mcGw1R3VUW8UpEM40MDvFlq1wbeaCEvETXbDTezojb+ZT8QIPM4eCi8yZ0bFDo4mi8ZUu9RwY0fF0Zi/UnovGKi8nVQTqAJhiTE6WOxZXoN7wKSWi8B/brX7Fb1f0gsiVD69OEK7OwEjMdoCs360LRlRVG4LqdaQVJy5pGhvMfQrZI3vrtp5J3lQVNFTs4mykZTfS2/qRUuqqnCaKlcDzYn0trwyV7KfHQvx67rBqi8n4ARwf5tdm1Umpn9Yne3UjYqVHq9sPea9MXdb5cI3tFoy+MJx3G91ANmleNhC3sV5OuFBtJb+HXQzcsTYd/JicPBe1OpfKcjFNRt/wcFT28we02KljZZakTvUdld33EAYROTk5OTk5OTk5OTk5OTk5OTk5OTk5OTk5OTk5OTk5OTk5OTk5OTk5OTv9+/Q8yFn5kyCoEgwAAAABJRU5ErkJggg==;" vertex="1" parent="1">
          <mxGeometry x="850" y="955" width="83.33" height="25" as="geometry" />
        </mxCell>
        <mxCell id="LxfW0TvHGFXh_5ghbKS4-131" value="task queue" style="text;html=1;strokeColor=none;fillColor=none;align=center;verticalAlign=middle;whiteSpace=wrap;rounded=0;dashed=1;" vertex="1" parent="1">
          <mxGeometry x="842" y="985" width="90" height="20" as="geometry" />
        </mxCell>
        <mxCell id="LxfW0TvHGFXh_5ghbKS4-135" value="shutdown chan" style="verticalLabelPosition=bottom;verticalAlign=top;html=1;shape=mxgraph.flowchart.parallel_mode;pointerEvents=1;rotation=0;" vertex="1" parent="1">
          <mxGeometry x="827" y="800" width="120" height="40" as="geometry" />
        </mxCell>
      </root>
    </mxGraphModel>
  </diagram>
</mxfile>
